<svg width="1432" height="340" viewBox="0 0 1432 340" fill="none" xmlns="http://www.w3.org/2000/svg">
<path d="M587.034 221.582C646.563 224.996 704.187 195.103 735.658 144.448C744.032 130.95 750.381 116.182 754.588 100.898C756.612 93.5141 745.143 90.3382 743.119 97.7222C734.309 129.958 714.981 159.176 688.233 179.382C659.342 201.177 623.108 211.737 587.073 209.672C579.414 209.236 579.454 221.145 587.073 221.582H587.034Z" fill="black"/>
<path d="M747.087 91.261C752.484 116.033 768.2 136.795 788.201 151.841C810.703 168.753 838.245 176.812 865.907 179.749C883.448 181.615 901.148 181.337 918.729 180.107C926.348 179.591 926.388 167.681 918.729 168.197C883.448 170.619 845.825 169.547 813.561 153.469C787.17 140.329 765.025 117.502 758.596 88.0851C756.969 80.5821 745.499 83.758 747.126 91.261H747.087Z" fill="black"/>
<path d="M928.727 176.058C921.266 103.171 870.23 39.1771 801.136 15.08C763.871 2.09852 722.677 0.629665 684.42 10.1176C648.425 19.0499 615.485 38.1846 589.173 64.2666C540.717 112.223 507.46 192.414 535.915 258.949C542.9 275.305 554.012 289.239 568.299 299.799C582.586 310.359 601.198 317.584 619.136 322.07C638.86 326.992 659.219 329.692 679.38 332.114C702.556 334.932 725.931 336.639 749.307 335.726C789.27 334.099 830.107 324.412 863.364 301.307C894.676 279.513 917.615 245.928 922.099 207.619C923.211 198.21 922.893 188.92 921.623 179.552C921.187 176.336 917.099 174.669 914.281 175.383C910.829 176.296 909.678 179.552 910.114 182.727C914.956 217.861 898.843 253.55 873.762 277.607C847.172 303.134 810.939 316.671 774.904 321.673C732.877 327.509 689.539 322.665 647.909 315.797C614.652 310.319 578.061 300.91 557.028 272.248C537.621 245.769 534.486 210.358 540.28 178.837C546.273 146.165 561.512 114.962 582.506 89.3165C603.5 63.6712 631.677 41.7575 663.267 29.3715C697.556 15.9534 735.655 12.3805 771.809 19.5262C839.632 32.9047 895.47 84.9497 912.535 152.199C914.519 160.06 915.988 168.039 916.821 176.138C917.575 183.68 929.521 183.76 928.727 176.138V176.058Z" fill="black"/>
<path d="M655.78 231.712C674.155 230.402 692.569 229.132 710.944 227.821V215.912C700.745 216.626 689.91 218.135 683.521 227.027C678.163 234.491 678.64 245.765 686.974 250.847C694.435 255.412 705.19 252.911 709.515 245.249C714.159 237.032 710.627 226.432 702.927 221.549C696.419 217.42 690.466 227.742 696.935 231.831C699.475 233.419 700.507 237.27 699.078 239.493C698.443 240.485 697.53 241.001 696.141 241.2C694.752 241.398 693.244 240.882 692.688 240.327C691.855 239.533 691.617 238.381 691.895 236.992C692.252 235.086 693.323 233.34 694.911 231.99C699.038 228.417 705.666 228.179 710.984 227.782C714.198 227.544 716.937 225.201 716.937 221.827C716.937 218.77 714.198 215.634 710.984 215.872C692.609 217.182 674.195 218.453 655.82 219.763C652.606 220.001 649.867 222.343 649.867 225.717C649.867 228.774 652.606 231.91 655.82 231.672L655.78 231.712Z" fill="black"/>
<path d="M800.916 214.158C815.441 213.523 829.927 212.888 844.452 212.213C852.111 211.856 852.111 200.661 844.452 200.303C831.792 199.748 818.259 199.867 806.75 205.861C800.996 208.878 795.638 213.721 793.336 219.914C792.066 223.289 791.947 227.537 793.773 230.752C795.836 234.404 799.845 236.429 803.972 235.913C808.576 235.318 812.346 231.983 813.973 227.695C815.799 222.892 814.37 217.731 812.624 213.166C811.473 210.149 808.615 208.084 805.282 208.997C802.424 209.791 799.964 213.324 801.115 216.342C801.789 218.088 802.623 219.954 802.861 221.82C802.94 222.336 802.861 222.971 802.861 223.448C802.662 224.123 802.662 224.162 802.861 223.606L802.543 224.083C802.901 223.646 802.821 223.646 802.345 224.162C802.821 223.845 802.781 223.845 802.186 224.202C802.781 224.003 802.742 224.003 802.107 224.202L802.662 224.123C803.536 224.4 803.734 224.44 804.29 225.155C803.972 224.559 803.972 224.599 804.29 225.234L804.17 224.758C804.29 225.472 804.329 225.512 804.29 224.758C804.17 225.433 804.17 225.433 804.29 224.718C804.448 224.162 804.567 223.606 804.805 223.09C804.369 224.083 805.401 222.177 805.52 221.979C804.964 222.852 805.917 221.502 806.075 221.344C806.988 220.311 807.98 219.359 809.052 218.446C808.338 219.041 810.044 217.771 810.203 217.652C810.758 217.294 811.354 216.937 811.949 216.58C812.544 216.222 813.14 215.945 813.775 215.627C814.132 215.468 814.489 215.309 814.846 215.151C814.409 215.349 814.41 215.349 814.806 215.151C816.116 214.635 817.465 214.198 818.815 213.841C821.593 213.086 824.41 212.61 826.395 212.411C832.387 211.816 838.42 211.895 844.412 212.173V200.264C829.887 200.899 815.402 201.534 800.877 202.209C797.662 202.368 794.924 204.829 794.924 208.164C794.924 211.26 797.662 214.277 800.877 214.118L800.916 214.158Z" fill="black"/>
<path d="M729.424 282.965C741.687 291.738 755.855 300.988 771.65 298.447C784.349 296.423 797.009 285.386 795.779 271.611C795.501 268.395 793.239 265.656 789.826 265.656C786.81 265.656 783.595 268.395 783.873 271.611C784.27 275.899 782.762 279.114 779.428 282.131C776.333 284.95 771.809 286.776 767.761 287.014C755.657 287.689 744.743 279.352 735.417 272.723C732.797 270.857 728.789 272.246 727.281 274.866C725.535 277.844 726.805 281.139 729.424 283.005V282.965Z" fill="black"/>
<path d="M757.009 221.902C754.747 233.614 754.747 245.444 757.009 257.155C757.604 260.212 761.454 262.236 764.351 261.323C767.605 260.251 769.153 257.274 768.518 253.979C768.28 252.669 768.082 251.399 767.843 250.089C767.764 249.652 767.804 249.692 767.843 250.168C767.804 249.771 767.724 249.374 767.685 248.977C767.605 248.381 767.566 247.746 767.486 247.151C767.248 244.61 767.129 242.069 767.129 239.529C767.129 236.988 767.248 234.447 767.486 231.907C767.526 231.311 767.605 230.676 767.685 230.08C767.685 229.922 767.923 228.215 767.764 229.247C767.962 227.857 768.201 226.428 768.478 225.039C769.074 221.982 767.605 218.449 764.311 217.694C761.375 217.02 757.604 218.568 756.969 221.863L757.009 221.902Z" fill="black"/>
<path d="M573.08 219.814C576.612 210.961 564.349 205.046 557.603 209.175C549.388 214.177 552.126 225.808 553.555 233.47C555.103 241.767 556.73 251.414 561.73 258.401C566.731 265.388 575.541 270.271 584.034 266.936C588.28 265.269 591.376 261.775 592.804 257.488C594.352 252.883 593.162 248.317 590.185 244.625C588.161 242.124 583.875 242.521 581.772 244.625C579.311 247.087 579.748 250.541 581.772 253.042C581.415 252.565 581.375 252.605 581.772 253.161C581.534 252.645 581.494 252.565 581.613 252.962C581.732 253.399 581.692 253.28 581.613 252.684C581.613 253.042 581.613 253.399 581.613 253.756C581.692 252.684 581.494 253.915 581.375 254.312C581.692 253.359 581.176 254.629 581.018 254.868C580.541 255.701 581.375 254.868 580.541 255.384C580.026 255.86 579.986 255.9 580.462 255.503L579.986 255.781C581.494 255.622 578.716 256.098 579.152 256.019C579.787 255.94 577.367 255.979 578.002 256.019C573.08 255.503 570.104 249.985 568.556 245.022C566.413 238.115 564.746 230.731 563.953 223.585C564.032 224.419 563.873 222.632 563.873 222.474C563.834 221.68 563.794 220.886 563.873 220.092C563.873 219.893 563.873 219.576 564.23 218.782C563.992 219.258 563.675 219.337 564.429 218.782C563.794 219.258 563.675 219.377 562.841 219.536C563.437 219.536 563.476 219.536 563 219.536C562.524 219.456 562.603 219.536 563.159 219.655C562.484 219.337 562.445 219.337 563 219.655L562.484 219.298C562.167 218.94 561.929 218.543 561.77 218.107C561.968 216.082 561.889 215.566 561.532 216.638C560.341 219.615 562.841 223.188 565.699 223.982C569.072 224.895 571.811 222.831 573.041 219.814H573.08Z" fill="black"/>
<path d="M921.521 185.946C926.045 185.39 927.593 190.154 928.109 193.886C928.942 200.079 928.744 206.629 928.506 212.861C928.307 218.141 928.546 224.374 926.72 229.416C926.442 230.13 926.085 230.805 925.609 231.401C925.45 231.639 925.212 231.639 925.132 231.718C925.371 231.52 924.259 231.679 925.132 231.798C925.013 231.798 924.021 231.48 923.982 231.48C924.498 230.805 925.371 233.822 925.013 232.076C924.378 228.9 920.608 227.113 917.672 227.907C914.378 228.82 912.909 232.076 913.505 235.252C915.092 243.31 925.45 245.613 931.72 241.683C939.38 236.879 939.578 226.28 940.134 218.3C940.729 209.13 941.126 199.483 939.539 190.392C938.07 181.857 931.125 172.845 921.521 174.036C918.346 174.433 915.568 176.497 915.568 179.991C915.568 182.889 918.307 186.343 921.521 185.946Z" fill="black"/>
<path d="M36 189.916L37.5081 242.16C37.7462 249.822 49.1361 249.822 49.4139 242.16C50.0092 225.129 51.3585 208.178 53.4618 191.266C55.5652 174.354 57.5495 158.118 62.1928 142.397C63.6611 137.435 65.7645 131.639 70.0506 128.423C75.4082 124.374 81.4008 127.748 85.5281 131.877C95.6878 142 102.831 156.927 108.03 170.107C114.42 186.343 118.11 203.493 118.944 220.921C119.261 227.551 128.707 229.099 130.651 222.509C135.969 204.247 132.874 185.629 132.159 167.01C131.564 150.932 133.27 132.591 146.922 121.952C160.574 111.313 176.647 120.205 187.997 130.646C199.983 141.682 210.539 154.187 219.429 167.844C229.826 183.803 237.843 201.072 243.359 219.254C245.582 226.558 257.091 223.462 254.829 216.078C243.994 180.428 223.874 147.478 196.411 122.23C183.553 110.4 166.607 99.9988 148.788 107.303C132.04 114.171 123.19 131.242 120.968 148.391C117.872 171.972 125.968 196.189 119.182 219.373L130.889 220.961C130.056 203.057 126.563 185.311 120.174 168.558C114.181 152.838 106.046 135.489 94.0209 123.461C82.8295 112.305 66.6376 111.67 57.1526 125.168C53.065 131.003 50.8426 138.149 49.3345 145.057C47.2311 154.783 45.5246 164.628 43.9769 174.434C40.5242 196.864 38.3812 219.492 37.5478 242.199H49.4536L47.9455 189.956C47.7471 182.294 35.8016 182.294 36.0397 189.956H36V189.916Z" fill="black"/>
<path d="M322.161 68.9549L328.114 147.4L331.09 186.622C331.527 192.378 332.043 198.095 332.4 203.851C332.757 209.171 333.353 215.721 330.019 220.286C324.82 227.392 313.589 226.281 306.247 224.177C297.397 221.596 289.341 216.634 282.951 210.004C269.458 195.951 265.767 174.553 274.974 157.126C285.213 137.753 310.414 130.011 329.384 141.445C335.972 145.415 341.964 135.133 335.377 131.163C315.415 119.134 287.952 123.144 272.236 140.413C256.52 157.681 253.703 184.041 264.458 204.605C274.578 224.018 298.032 239.858 320.494 237.357C332.4 236.047 341.964 228.583 343.949 216.356C344.901 210.362 344.346 204.367 343.869 198.373L342.083 174.831L334.027 68.9549C333.432 61.3725 321.526 61.2931 322.121 68.9549H322.161Z" fill="black"/>
<path d="M408.049 120.207C367.054 118.063 349.354 174.872 364.276 206.194C371.856 222.113 389.913 231.998 407.057 225.567C424.202 219.136 434.837 202.224 440.83 185.908C448.093 166.019 448.132 143.51 440.949 123.621L429.48 126.797C443.449 163.478 461.268 198.532 482.778 231.363C486.945 237.755 497.264 231.8 493.057 225.369C472.103 193.411 454.601 159.35 440.989 123.621C438.29 116.555 426.9 119.532 429.52 126.797C439.124 153.395 434.956 188.29 413.129 208.06C402.414 217.786 387.809 218.342 378.404 206.472C368.998 194.602 370.07 176.579 373.8 162.645C378.126 146.686 389.953 131.164 408.089 132.117C415.748 132.514 415.709 120.604 408.089 120.207H408.049Z" fill="black"/>
<path d="M1037.55 58.823C1009.89 56.1235 982.549 72.9557 969.929 97.291C955.959 124.286 958.658 156.998 972.469 183.477C979.176 196.339 988.502 207.931 999.098 217.776C1004.5 222.818 1010.33 227.344 1016.32 231.631C1021.92 235.601 1027.79 239.531 1032.16 244.891C1041.13 255.967 1038.03 270.695 1031.05 281.93C1024.06 293.164 1013.5 300.747 1001.76 305.431C975.763 315.792 943.974 311.465 923.179 292.211C917.583 287.011 909.13 295.427 914.765 300.628C934.053 318.492 960.841 325.479 986.597 321.708C1012.35 317.936 1038.19 301.461 1047.12 275.737C1051.72 262.477 1050.05 248.067 1041.05 237.03C1032.04 225.994 1018.07 219.087 1007.51 209.321C985.168 188.598 970.008 159.975 972.826 128.851C975.802 96.0603 1003.27 67.3582 1037.47 70.6929C1045.09 71.4472 1045.05 59.4979 1037.47 58.7833L1037.55 58.823Z" fill="black"/>
<path d="M1081.78 146.632C1070.2 142.821 1057.1 144.846 1047.69 152.786C1038.29 160.725 1034.4 173.786 1038.09 185.021C1041.78 196.256 1052.5 204.711 1064.36 204.751C1076.23 204.791 1085.91 196.613 1091.67 186.926C1099.88 173.072 1099.44 156.398 1104.09 141.352L1092.38 139.764C1096.43 172.357 1107.06 203.64 1124.17 231.707C1128.14 238.257 1138.46 232.262 1134.45 225.712C1118.53 199.551 1108.1 170.213 1104.29 139.764C1103.49 133.373 1094.72 131.348 1092.58 138.176C1088.65 150.801 1088.85 164.814 1083.41 176.922C1079.52 185.616 1070.87 195.501 1060.27 192.167C1049.68 188.832 1046.03 177.28 1050.67 167.911C1055.83 157.47 1068.09 154.612 1078.53 158.065C1085.83 160.487 1088.97 148.974 1081.71 146.593L1081.78 146.632Z" fill="black"/>
<path d="M1173.05 211.823C1168.52 182.644 1163.96 153.426 1159.44 124.248C1158.92 121.032 1154.95 119.325 1152.09 120.079C1148.68 120.992 1147.45 124.248 1147.93 127.424C1152.45 156.602 1157.01 185.82 1161.54 214.999C1162.05 218.214 1166.02 219.921 1168.88 219.167C1172.29 218.254 1173.52 214.999 1173.05 211.823Z" fill="black"/>
<path d="M1158.19 151.912C1159.74 145.878 1162.83 133.253 1171.29 134.246C1180.26 135.278 1184.9 149.728 1187.64 156.557C1197 179.82 1203.75 204.036 1207.96 228.768C1209.23 236.311 1220.74 233.096 1219.43 225.593C1216.81 210.348 1213.27 195.263 1208.71 180.495C1204.38 166.481 1199.74 151.515 1192.52 138.652C1187.08 128.926 1177.36 119.637 1165.29 123.011C1154.02 126.187 1149.34 138.533 1146.68 148.736C1144.78 156.16 1156.25 159.335 1158.15 151.912H1158.19Z" fill="black"/>
<path d="M1227.72 183.878C1242.92 186.3 1258.4 179.353 1266.46 166.093C1273.04 155.216 1273.72 134.731 1258.12 131.079C1239.63 126.792 1231.53 153.429 1228.52 166.53C1225.26 180.821 1223.12 199.4 1232.21 212.104C1237.49 219.488 1246.06 223.101 1255.03 221.791C1264.87 220.361 1273.2 214.129 1280.66 207.936C1283.16 205.871 1282.77 201.663 1280.66 199.52C1278.24 197.058 1274.71 197.495 1272.25 199.52C1265.34 205.236 1252.68 215.201 1243.87 207.459C1236.45 200.949 1237.37 187.928 1238.36 179.194C1239.11 172.524 1240.74 165.934 1242.88 159.583C1244.67 154.342 1246.77 148.03 1251.14 144.299C1253.8 142.036 1256.69 142.036 1258.24 145.41C1260.03 149.261 1259.15 154.025 1257.45 157.717C1252.92 167.364 1241.57 174.112 1230.86 172.366C1227.64 171.85 1224.51 173.199 1223.52 176.534C1222.72 179.353 1224.51 183.362 1227.68 183.878H1227.72Z" fill="black"/>
<path d="M1313.92 68.9534V213.337C1313.92 220.999 1325.83 220.999 1325.83 213.337V68.9534C1325.83 61.2916 1313.92 61.2916 1313.92 68.9534Z" fill="black"/>
<path d="M1340.91 120.084C1329.88 128.579 1318.53 137.789 1309.68 148.587C1305.83 153.272 1303.85 159.465 1307.06 165.142C1309.92 170.144 1315.24 172.684 1320.2 175.146C1344.88 187.333 1367.07 203.927 1385.92 223.975C1391.2 229.572 1399.57 221.156 1394.33 215.559C1378.18 198.369 1359.57 183.522 1339.13 171.771C1334.17 168.913 1329.13 166.332 1324.01 163.792C1322.18 162.879 1319.52 161.926 1318.25 160.259C1316.86 158.432 1317.54 157.758 1318.97 155.971C1326.71 146.324 1337.14 137.869 1346.91 130.365C1349.49 128.381 1350.79 125.284 1349.05 122.227C1347.62 119.687 1343.45 118.138 1340.91 120.084Z" fill="black"/>
</svg>
