<svg width="283" height="500" viewBox="0 0 283 500" fill="none" xmlns="http://www.w3.org/2000/svg">
<path d="M143.783 353.558V357.544H282.797V399.356H143.783V403.342H282.797V500H0.796875V146.48H282.797V353.558H143.783Z" fill="white"/>
<path d="M139.811 69.7532C139.811 31.2296 108.692 0 70.3039 0C31.9162 0 0.796875 31.2296 0.796875 69.7532V72.7426C0.796875 111.266 31.9162 142.496 70.3039 142.496C108.692 142.496 139.811 111.266 139.811 72.7426V69.7532Z" fill="white"/>
<path d="M282.795 69.7532C282.795 31.2296 251.676 0 213.288 0C174.901 0 143.781 31.2296 143.781 69.7532V72.7426C143.781 111.266 174.901 142.496 213.288 142.496C251.676 142.496 282.795 111.266 282.795 72.7426V69.7532Z" fill="white"/>
</svg>
